<svg width="771" height="783" viewBox="0 0 771 783" fill="none" xmlns="http://www.w3.org/2000/svg">
<path d="M399 457.5C484.662 347.187 512.254 285.267 467 174.5L534 135C591 262.5 554.5 362 399 457.5Z" fill="#638DB7"/>
<path d="M417.5 206C468 288.5 474 369 334 462C412.111 371.63 399 302 362.5 241L417.5 206Z" fill="#638DB7"/>
<path d="M274 447.5C370.5 382.5 374.5 322 340 255L300.5 282.5C327.5 325.5 323.5 377.5 274 447.5Z" fill="#638DB7"/>
<ellipse cx="462.5" cy="87.5" rx="52.5" ry="47.5" fill="#638DB7"/>
<ellipse cx="366.5" cy="172.5" rx="42.5" ry="37.5" fill="#638DB7"/>
<ellipse cx="291.5" cy="227.5" rx="32.5" ry="27.5" fill="#638DB7"/>
<path d="M498.5 379.5C528 471 375.5 527 253 475C358 590.5 633 467 517.5 357L498.5 379.5Z" fill="#394283"/>
<path d="M317.891 334C182.43 351.912 144.3 535.505 350 520.081C205.508 503.165 205.007 368.828 317.891 334Z" fill="#638DB7"/>
<path d="M449.032 315C461.271 318.222 467.899 320.747 479 327.458L473.413 341C463.913 334.319 458.104 331.4 447 327.458L449.032 315Z" fill="#394283"/>
</svg>
